<svg width="64" height="64" viewBox="0 0 64 64" fill="none" xmlns="http://www.w3.org/2000/svg">
  <!-- Background Circle -->
  <circle cx="32" cy="32" r="30" fill="url(#gradient)" stroke="url(#borderGradient)" stroke-width="2"/>
  
  <!-- Graduation Cap -->
  <path d="M20 28L32 22L44 28L32 34L20 28Z" fill="white" fill-opacity="0.9"/>
  <path d="M44 28V36C44 38 38 40 32 40C26 40 20 38 20 36V28" stroke="white" stroke-width="2" fill="none" stroke-linecap="round"/>
  
  <!-- Book Pages -->
  <rect x="26" y="36" width="12" height="16" rx="1" fill="white" fill-opacity="0.8"/>
  <line x1="28" y1="40" x2="36" y2="40" stroke="#667eea" stroke-width="1" stroke-opacity="0.7"/>
  <line x1="28" y1="43" x2="36" y2="43" stroke="#667eea" stroke-width="1" stroke-opacity="0.7"/>
  <line x1="28" y1="46" x2="34" y2="46" stroke="#667eea" stroke-width="1" stroke-opacity="0.7"/>
  
  <!-- Checkmark -->
  <circle cx="48" cy="16" r="8" fill="#4CAF50"/>
  <path d="M44 16L47 19L52 13" stroke="white" stroke-width="2" fill="none" stroke-linecap="round" stroke-linejoin="round"/>
  
  <!-- Gradient Definitions -->
  <defs>
    <linearGradient id="gradient" x1="0%" y1="0%" x2="100%" y2="100%">
      <stop offset="0%" style="stop-color:#667eea"/>
      <stop offset="100%" style="stop-color:#764ba2"/>
    </linearGradient>
    <linearGradient id="borderGradient" x1="0%" y1="0%" x2="100%" y2="100%">
      <stop offset="0%" style="stop-color:#667eea" stop-opacity="0.8"/>
      <stop offset="100%" style="stop-color:#764ba2" stop-opacity="0.8"/>
    </linearGradient>
  </defs>
</svg>